<?xml version="1.0" standalone="no"?><!DOCTYPE svg PUBLIC "-//W3C//DTD SVG 1.1//EN" "http://www.w3.org/Graphics/SVG/1.1/DTD/svg11.dtd"><svg t="1704810199768" class="icon" viewBox="0 0 1024 1024" version="1.1" xmlns="http://www.w3.org/2000/svg" p-id="7132" xmlns:xlink="http://www.w3.org/1999/xlink" width="200" height="200"><path d="M456.032 64.32c-247.232 0-391.744 62.656-391.744 139.936v83.936c0 77.248 144.48 139.936 391.744 139.936s419.744-62.656 419.744-139.936V204.256c0-77.248-172.48-139.936-419.744-139.936z m-50.784 698.528c-169.824-6.304-269.024-45.056-321.152-96.928-13.312 13.248-19.808 27.328-19.808 41.984v111.936c0 77.28 144.48 139.872 391.744 139.872 24.768 0 48.832-0.768 72.544-1.984a307.2 307.2 0 0 1-123.296-194.848z m65.28-250.944c-5.344 0.032-10.432 0.096-15.904 0.096-200.48 0-313.504-41.184-370.56-97.952-13.312 13.28-19.808 27.36-19.808 42.016v111.936c0 71.2 122.976 129.888 335.84 138.656a306.304 306.304 0 0 1 70.4-194.72z m237.344-55.84a251.84 251.84 0 1 0 0 503.68 251.84 251.84 0 0 0 0-503.68z m11.232 351.84h-25.696v-132.512c0-10.944 0.64-24.096 1.92-39.392h-0.64a124.48 124.48 0 0 1-5.92 20.128l-66.048 151.776h-14.304l-65.888-150.624c-1.536-3.424-3.52-10.528-5.952-21.312h-0.768c0.864 9.312 1.28 22.816 1.28 40.544v131.36h-24.672v-200.064h35.008l59.04 137.184c4.48 10.528 7.456 18.72 8.896 24.544h0.896c4.48-12.32 7.616-20.672 9.44-25.056l60.064-136.672h33.344v200.064z m118.336-73.6v73.632h-25.952v-72.992l-64.192-127.072h29.568l43.264 88.608c0.096 0.096 1.664 4.352 4.8 12.8h0.384c1.024-3.616 2.784-7.84 5.312-12.672l45.216-88.736h27.52l-65.888 126.464z" p-id="7133" fill="#1296db"></path></svg>