<svg version="1.1" xmlns="http://www.w3.org/2000/svg" height="1024" width="1024" viewBox="0 0 1024 1024"><path d="M225.47998668 370.00855343c-5.22761998 26.1380999 52.27619995 224.7876597 135.91812014 350.25053973 0 5.22761998 5.22761998 5.22761998 5.22761978 10.45524008 209.10479978 235.24289983 475.71341971 146.3733599 444.34769983 151.6009798-15.68285998 5.22761998-52.27619995-5.22761998-94.0971599-31.36571996-88.86953999-47.04857999-162.05621993-135.91811995-177.73908006-235.24289984-15.68285998-88.86953999-15.68285998-162.05621993-31.36571999-193.42193989-20.91048011-57.50382009-57.50382009-83.64191981-99.32477991-94.0971599-36.59333995-15.68285998-172.51145978 0-182.96669989 41.82095998z" fill="#FF3C00"></path><path d="M272.5285668 145.22089346c5.22761998 125.46287985 115.00763988 198.64955984 94.0971598 193.42194005-15.68285998-5.22761998-36.59333995-146.3733599-41.82096-203.87718001 0-10.45524001-15.68285998-20.91048011-26.1380999-20.91047996-15.68285998 5.22761998-26.1380999 15.68285998-26.1380999 31.36571992z" fill="#FF3C00"></path></svg>